# xmcd
#
# Track frame offsets:
#	150
#	11578
#	24041
#	40999
#	53003
#	72866
#	88091
#	102709
#	115765
#	127820
#	145148
#	161916
#	177055
#	188168
#	199836
#	214197
#	229983
#	238174
#	249211
#	258860
#	272464
#	289285
#
# Disc length: 4026 seconds
#
# Revision: 1
# Processed by: cddbd v1.5.1PL0 Copyright (c) Steve Scherf et al.
# Submitted via: audiograbber 1.83.01
#
DISCID=350fb816
DTITLE=Porter Wagoner - 22 Grand Old Gospel 2004
DYEAR=2003
DGENRE=Gospel
TTITLE0=When The Roll Is Called Up Yonder
TTITLE1=Heaven's Just A Prayer Away
TTITLE2=I Thought Of God
TTITLE3=Swing Low Sweet Chariot
TTITLE4=Trouble In The Amen Corner
TTITLE5=Hold To God's Unchanging Hand
TTITLE6=Wayfaring Stranger
TTITLE7=Life's Railway To Heaven
TTITLE8=The Farmer And The Lord
TTITLE9=Teardrops Falling In The Snow
TTITLE10=Walk That Lonesome Valley
TTITLE11=I Won't Have To Cross Jordan Alone
TTITLE12=Heaven On My Mind
TTITLE13=What Would You Do
TTITLE14=Lord I'm Coming Home
TTITLE15=Will There Be Any Stars In My Crown
TTITLE16=Old Camp Meeting Time
TTITLE17=I'll Meet You In Church Sunday Morning
TTITLE18=Where The Roses Never Fade
TTITLE19=Old Cross Roads
TTITLE20=Angel Band
TTITLE21=Just Over In The Gloryland
EXTD=
EXTT0=
EXTT1=
EXTT2=
EXTT3=
EXTT4=
EXTT5=
EXTT6=
EXTT7=
EXTT8=
EXTT9=
EXTT10=w/Penny Dellaven
EXTT11=
EXTT12=
EXTT13=
EXTT14=
EXTT15=
EXTT16=
EXTT17=
EXTT18=
EXTT19=
EXTT20=
EXTT21=
PLAYORDER=
